# xmcd CD database file
#
# Track frame offsets:
#	150
#	19865
#	38337
#	63347
#
# Disc length: 1020 seconds
#
# Revision: 2
# Processed by: cddbd v1.5.2PL0 Copyright (c) Steve Scherf et al.
# Submitted via: CDex 1.60beta1-cs1
#
DISCID=2503fa04
DTITLE=EASY GRIP - LOOKING FOR TRUE COLORS
DYEAR=1999
DGENRE=Punk Rock
TTITLE0=LOOKING FOR TRUE COLORS
TTITLE1=EVERYTHING
TTITLE2=TOMORROW IS ANOTHER DAY
TTITLE3=IN MY MIND
EXTD=YEAR: 1999
EXTT0=
EXTT1=
EXTT2=
EXTT3=
PLAYORDER=
